<svg xmlns="http://www.w3.org/2000/svg" viewBox="0 0 512 512" role="img" aria-labelledby="title desc">
  <title id="title">ReLead monogram</title>
  <desc id="desc">Monograma metálico con la letra R estilizada sobre fondo oscuro.</desc>
  <defs>
    <linearGradient id="monogramMetal" x1="0%" y1="0%" x2="100%" y2="100%">
      <stop offset="0%" stop-color="#fafafa" />
      <stop offset="20%" stop-color="#d7d9dc" />
      <stop offset="45%" stop-color="#8c8f95" />
      <stop offset="65%" stop-color="#b7babe" />
      <stop offset="100%" stop-color="#5e5f63" />
    </linearGradient>
    <linearGradient id="monogramEdge" x1="0%" y1="0%" x2="0%" y2="100%">
      <stop offset="0%" stop-color="#ffffff" stop-opacity="0.65" />
      <stop offset="40%" stop-color="#ffffff" stop-opacity="0.05" />
      <stop offset="100%" stop-color="#000000" stop-opacity="0.65" />
    </linearGradient>
    <linearGradient id="monogramInner" x1="0%" y1="0%" x2="100%" y2="0%">
      <stop offset="0%" stop-color="#1c1d20" />
      <stop offset="50%" stop-color="#404146" />
      <stop offset="100%" stop-color="#0f1012" />
    </linearGradient>
    <filter id="softGlow" x="-20%" y="-20%" width="140%" height="140%">
      <feDropShadow dx="0" dy="18" stdDeviation="22" flood-color="#000000" flood-opacity="0.65" />
    </filter>
  </defs>
  <rect width="512" height="512" rx="72" fill="url(#monogramInner)" />
  <g filter="url(#softGlow)">
    <path fill="url(#monogramMetal)" d="M120 84h192c120 0 204 69 204 178 0 78-43 135-114 160l126 146H390l-140-158h-62v158H120V84Zm108 196h176c57.3 0 96-36.4 96-96 0-59.4-38.7-96-96-96H228v192Z" />
    <path fill="url(#monogramEdge)" d="M228 84h84c120 0 204 69 204 178 0 78-43 135-114 160l126 146h-60L344 322c82.3-19.6 132-77.5 132-158 0-103.3-80.3-180-188-180h-60Z" opacity=".55" />
  </g>
</svg>
